<svg height="480pt" viewBox="0 0 480 480" width="480pt" xmlns="http://www.w3.org/2000/svg" xmlns:xlink="http://www.w3.org/1999/xlink"><linearGradient id="a"><stop offset="0" stop-color="#159957"/><stop offset="1" stop-color="#00afc3"/></linearGradient><linearGradient id="b" gradientUnits="userSpaceOnUse" x1="-16" x2="489.016" xlink:href="#a" y1="148" y2="148"/><linearGradient id="c" gradientUnits="userSpaceOnUse" x1="-16" x2="489.016" xlink:href="#a" y1="256" y2="256"/><linearGradient id="d" gradientUnits="userSpaceOnUse" x1="-16" x2="489.016" xlink:href="#a" y1="240" y2="240"/><path d="m232 248h16c17.671875 0 32-14.328125 32-32v-136c0-17.671875-14.328125-32-32-32h-16c-17.671875 0-32 14.328125-32 32v136c0 17.671875 14.328125 32 32 32zm-16-168c0-8.835938 7.164062-16 16-16h16c8.835938 0 16 7.164062 16 16v136c0 8.835938-7.164062 16-16 16h-16c-8.835938 0-16-7.164062-16-16zm0 0" fill="url(#b)"/><path d="m324.214844 105.199219c-2.464844-1.527344-5.570313-1.601563-8.105469-.191407-2.539063 1.414063-4.109375 4.089844-4.109375 6.992188v48c.101562 1.023438.308594 2.03125.609375 3.015625.472656.914063 1.035156 1.78125 1.679687 2.585937l.046876.054688c23.183593 21.21875 36.773437 50.929688 37.664062 82.34375 0 55.398438-52.335938 104-112 104s-112-48.601562-112-104c.890625-31.410156 14.476562-61.121094 37.65625-82.335938l.046875-.054687c.644531-.804687 1.207031-1.671875 1.679687-2.585937.304688-.984376.511719-1.996094.617188-3.023438v-48c0-2.902344-1.570312-5.578125-4.109375-6.992188-2.535156-1.410156-5.640625-1.335937-8.105469.191407-31.289062 19.410156-83.785156 63.769531-83.785156 142.800781 0 86.726562 76.9375 160 168 160s168-73.273438 168-160c0-79.03125-52.496094-123.390625-83.785156-142.800781zm-84.214844 286.800781c-82.398438 0-152-65.945312-152-144 .257812-48.359375 24.160156-93.53125 64-120.945312v29.746093c-24.972656 23.84375-39.375 56.679688-40 91.199219 0 63.921875 59.816406 120 128 120s128-56.078125 128-120c-.625-34.519531-15.027344-67.355469-40-91.199219v-29.746093c39.839844 27.414062 63.742188 72.585937 64 120.945312 0 78.054688-69.601562 144-152 144zm0 0" fill="url(#c)"/><path d="m240 0c-132.546875 0-240 107.453125-240 240s107.453125 240 240 240 240-107.453125 240-240c-.148438-132.484375-107.515625-239.851562-240-240zm0 464c-123.710938 0-224-100.289062-224-224s100.289062-224 224-224 224 100.289062 224 224c-.140625 123.652344-100.347656 223.859375-224 224zm0 0" fill="url(#d)"/></svg>